<?xml version="1.0" encoding="UTF-8" standalone="no"?><!DOCTYPE svg PUBLIC "-//W3C//DTD SVG 1.1//EN" "http://www.w3.org/Graphics/SVG/1.1/DTD/svg11.dtd"><svg width="100%" height="100%" viewBox="0 0 100 90" version="1.1" xmlns="http://www.w3.org/2000/svg" xmlns:xlink="http://www.w3.org/1999/xlink" xml:space="preserve" xmlns:serif="http://www.serif.com/" style="fill-rule:evenodd;clip-rule:evenodd;stroke-linejoin:round;stroke-miterlimit:2;"><rect id="DLR-Logo" x="0" y="0" width="100" height="90" style="fill:none;"/><clipPath id="_clip1"><rect x="0" y="0" width="100" height="90"/></clipPath><g clip-path="url(#_clip1)"><clipPath id="_clip2"><rect id="test.svg" x="-45.394" y="-40" width="190.16" height="173.23"/></clipPath><g clip-path="url(#_clip2)"><rect x="-45.394" y="-40" width="190.16" height="173.83" style="fill:none;"/><path d="M71.516,33.59l-0,-25.99l-25.95,25.99l-22.27,-0l-21.22,21.22l26.13,0l-0,26.06l26.07,-26.07l22.08,0l21.2,-21.21l-26.04,-0Zm-5.33,-13.08l-0,13.1l-13.1,-0l13.1,-13.1Zm-51.23,28.95l10.49,-10.51l14.72,-0l-10.5,10.51l-14.71,-0Zm18.54,18.63l-0,-13.28l13.26,0l-13.26,13.28Zm18.63,-18.63l-14.88,-0l10.49,-10.51l14.88,-0l-10.49,10.51Zm22.05,-0l-14.49,-0l10.49,-10.51l14.5,-0l-10.5,10.51Zm-19.81,20.96l4.34,0c4.86,0 9.15,1.64 9.15,7.92c-0,6.29 -4.29,7.92 -9.15,7.92l-4.34,0l-0,-15.84Zm3.18,13.35l1.77,0c2.65,0 5.22,-1.97 5.22,-5.42c-0,-3.45 -2.57,-5.43 -5.22,-5.43l-1.77,0l-0,10.85Zm13.67,-13.35l3.18,0l-0,13.35l6.15,0l-0,2.5l-9.33,0l-0,-15.85Zm12.18,0l3.43,0c3.41,0 7.47,-0.11 7.47,4.29c-0,1.86 -1.25,3.41 -3.27,3.68l-0,0.05c0.86,0.07 1.36,0.93 1.68,1.63l2.54,6.2l-3.54,0l-1.91,-4.95c-0.46,-1.18 -0.86,-1.63 -2.2,-1.63l-1.02,0l-0,6.58l-3.18,0l-0,-15.85Zm3.18,6.76l1.05,0c1.56,0 3.36,-0.23 3.36,-2.2c-0,-1.9 -1.77,-2.07 -3.36,-2.07l-1.05,-0l-0,4.27Z" style="fill:#1d1d1b;fill-rule:nonzero;"/></g></g></svg>